<svg id="Layer_1" data-name="Layer 1" xmlns="http://www.w3.org/2000/svg" viewBox="0 0 1280 389.49"><defs><style>.cls-1,.cls-5{fill:#fff;}.cls-2,.cls-4{fill:none;}.cls-3,.cls-6{fill:#39b54a;}.cls-4{stroke:#39b54a;stroke-miterlimit:10;stroke-width:3px;}.cls-5{font-size:54.93px;font-family:Saira-Thin, Saira;}.cls-6{font-size:231.22px;font-family:Saira-Medium, Saira;}</style></defs><title>carryai-dark</title><g id="dark"><path class="cls-1" d="M255.8,294.59c-13,0-26,0-39,0a14.91,14.91,0,0,0-11.11,4.58Q192.41,312.59,179,325.91a13.74,13.74,0,0,1-23.72-8.72c-.08-3.34,0-6.69,0-10a14.23,14.23,0,0,0-10.57-13.91c-14.43-4.19-24-13.45-28.87-27.66a39.13,39.13,0,0,1-1.86-12.68c0-4.15,0-8.31,0-12.47,0-.68-.18-.87-.88-.88a74.59,74.59,0,0,1-9.23-.33,19.6,19.6,0,0,1-15.08-10.81,20.4,20.4,0,0,1,3.33-23.71,20.11,20.11,0,0,1,15.15-6.44c1.94,0,3.87,0,5.81,0,.75,0,.9-.25.89-.93,0-4.53-.06-9,0-13.57A41.26,41.26,0,0,1,146.89,144a44.23,44.23,0,0,1,9-.84h53.18c1.27,0,1.15.13,1.15-1.12,0-5.2,0-10.41,0-15.61a1.35,1.35,0,0,0-.73-1.31A27.29,27.29,0,0,1,198.11,111a26,26,0,0,1-1.06-14.36c2.14-10.22,8.2-17.17,17.94-20.79a27.42,27.42,0,0,1,29.62,7.71,27.49,27.49,0,0,1-.72,37.31,26.08,26.08,0,0,1-5.48,4.4,1.15,1.15,0,0,0-.62,1.14q0,7.88,0,15.76c0,1.07,0,1.07,1,1.07q26.75,0,53.49,0a41.68,41.68,0,0,1,19.15,4.46,41.36,41.36,0,0,1,22.68,37.26c0,4.13,0,8.27,0,12.4,0,.82.24,1,1,1,2.3,0,4.61-.05,6.91,0a20.48,20.48,0,0,1,19.3,17.21c1.24,8.56-1.78,15.43-8.76,20.46a20,20,0,0,1-11.91,3.58c-1.9,0-3.81,0-5.72,0-.68,0-.83.22-.82.85,0,4.74,0,9.47-.06,14.2a39.39,39.39,0,0,1-7.69,22.75,40.46,40.46,0,0,1-27.64,16.8,46.14,46.14,0,0,1-6.65.43C280,294.62,267.91,294.59,255.8,294.59ZM169,316.13l.37.25a4.28,4.28,0,0,1,.49-.8q13-13.08,26.11-26.14a33.34,33.34,0,0,1,2.79-2.53,27.55,27.55,0,0,1,17.82-6.09q37.8,0,75.62,0a28.82,28.82,0,0,0,9.27-1.37,27.45,27.45,0,0,0,18.91-26.26q.09-34.32,0-68.64a26.75,26.75,0,0,0-9.83-21.13A27.26,27.26,0,0,0,292.26,157q-54.6,0-109.2,0H155.61a27.57,27.57,0,0,0-27.9,27.68c0,22.83-.08,45.66,0,68.48,0,10.11,4.48,18,12.94,23.55a35.33,35.33,0,0,0,8.72,3.65,26.92,26.92,0,0,1,5.33,2.26c8.9,5.23,13.67,13.06,14.23,23.37.16,3.11,0,6.22.05,9.34Z"/><path class="cls-2" d="M169,316.13v-.84c0-3.12.11-6.23-.05-9.34-.56-10.31-5.33-18.14-14.23-23.37a26.92,26.92,0,0,0-5.33-2.26,35.33,35.33,0,0,1-8.72-3.65c-8.46-5.57-12.9-13.44-12.94-23.55-.1-22.82,0-45.65,0-68.48A27.57,27.57,0,0,1,155.61,157h27.45q54.6,0,109.2,0a27.26,27.26,0,0,1,18.29,6.49,26.75,26.75,0,0,1,9.83,21.13q.08,34.32,0,68.64a27.45,27.45,0,0,1-18.91,26.26,28.82,28.82,0,0,1-9.27,1.37q-37.81,0-75.62,0a27.55,27.55,0,0,0-17.82,6.09,33.34,33.34,0,0,0-2.79,2.53q-13.07,13.05-26.11,26.14a4.28,4.28,0,0,0-.49.8Zm-13.76-97.22a20.63,20.63,0,1,0,20.57-20.64A20.7,20.7,0,0,0,155.24,218.91Zm137.62,0a20.65,20.65,0,1,0-20.62,20.64A20.65,20.65,0,0,0,292.86,218.92Z"/><path class="cls-3" d="M155.24,218.91a20.63,20.63,0,1,1,20.6,20.65A20.62,20.62,0,0,1,155.24,218.91Z"/><path class="cls-3" d="M292.86,218.92a20.65,20.65,0,1,1-20.58-20.65A20.71,20.71,0,0,1,292.86,218.92Z"/><line class="cls-4" x1="432.04" y1="319.76" x2="696.67" y2="319.76"/><text class="cls-5" transform="translate(429.82 304.1)">See. Think. Act</text><text class="cls-6" transform="translate(410.17 244.36)">Carry<tspan class="cls-1" x="578.03" y="0">AI</tspan></text></g></svg>