<?xml version="1.0" encoding="UTF-8"?><svg id="Layer_1" xmlns="http://www.w3.org/2000/svg" xmlns:xlink="http://www.w3.org/1999/xlink" viewBox="0 0 1280 389"><defs><style>.cls-1{fill:#b0d248;}.cls-2{fill:#18262c;}.cls-3{font-family:Seravek-Medium, Seravek;font-size:70.69px;}.cls-3,.cls-4{fill:#b0dd42;}.cls-5{letter-spacing:-.01em;}.cls-6{fill:url(#New_Gradient_Swatch_1);}.cls-7{letter-spacing:-.11em;}.cls-4{font-family:TTHovesProTrial-DmBd, 'TT Hoves Pro Trial';font-size:200px;}.cls-8{letter-spacing:-.05em;}.cls-9{letter-spacing:-.05em;}.cls-10{letter-spacing:0em;}.cls-11{letter-spacing:-.07em;}.cls-12{letter-spacing:-.07em;}</style><linearGradient id="New_Gradient_Swatch_1" x1="196.95" y1="326.87" x2="196.95" y2="61.86" gradientUnits="userSpaceOnUse"><stop offset="0" stop-color="#8bc53f"/><stop offset="1" stop-color="#b0d248"/></linearGradient></defs><rect class="cls-2" width="1280" height="389"/><text id="See._Think._Act" class="cls-3" transform="translate(548.41 313.36)"><tspan x="0" y="0">See.</tspan><tspan class="cls-10" x="128.58" y="0"> </tspan><tspan x="143.07" y="0">Think. </tspan><tspan class="cls-5" x="354.7" y="0">A</tspan><tspan x="403.05" y="0">ct</tspan></text><text class="cls-4" transform="translate(387.48 234.37)"><tspan class="cls-11" x="0" y="0">C</tspan><tspan class="cls-8" x="132" y="0">AR</tspan><tspan class="cls-12" x="381.2" y="0">R</tspan><tspan class="cls-7" x="500.2" y="0">Y</tspan><tspan class="cls-9" x="602.4" y="0">AI</tspan></text><g><path class="cls-6" d="M229.86,289.99c-13.45,0-26.9,.03-40.36-.02-4.53-.01-8.3,1.52-11.5,4.74-9.19,9.26-18.43,18.47-27.66,27.69-3.94,3.94-8.64,5.29-14.06,3.97-5.78-1.41-10.36-7.05-10.49-12.99-.08-3.46-.03-6.93-.03-10.39-.01-6.9-4.32-12.47-10.95-14.4-14.93-4.34-24.89-13.92-29.88-28.64-1.44-4.24-1.93-8.65-1.93-13.12,0-4.3-.02-8.61,.02-12.91,0-.71-.18-.91-.9-.92-3.19-.05-6.42,.12-9.56-.34-7.05-1.04-12.3-4.9-15.61-11.19-4.28-8.14-2.89-17.88,3.45-24.54,4.24-4.45,9.5-6.68,15.68-6.66,2,0,4.01-.04,6.01,.02,.78,.02,.93-.26,.93-.97-.02-4.68-.07-9.37,.01-14.05,.34-20.03,14.48-37.07,34.09-41.14,3.09-.64,6.21-.87,9.36-.87,18.35,.01,36.7,0,55.05,0,1.31,0,1.19,.14,1.19-1.16,0-5.39-.01-10.77,.02-16.16,0-.65-.2-1.02-.75-1.36-5.63-3.54-9.59-8.43-11.85-14.69-1.75-4.85-2.15-9.83-1.1-14.87,2.21-10.58,8.49-17.77,18.57-21.52,10.62-3.95,23.22-.55,30.66,7.98,5.19,5.96,7.58,12.88,7.13,20.71-.4,6.89-3.1,12.88-7.87,17.91-1.69,1.78-3.59,3.29-5.68,4.55-.48,.29-.64,.63-.64,1.18,.02,5.44,.01,10.88,.01,16.32q0,1.11,1.09,1.11c18.46,0,36.92,.02,55.38-.01,6.98-.01,13.58,1.47,19.81,4.61,7.37,3.72,13.14,9.17,17.4,16.22,4.16,6.87,6.06,14.36,6.08,22.36,0,4.28,.03,8.55-.02,12.83,0,.85,.26,1.03,1.05,1.02,2.38-.04,4.77-.05,7.14,.03,9.89,.34,18.56,8.02,19.99,17.81,1.29,8.86-1.84,15.97-9.07,21.18-3.63,2.61-7.84,3.71-12.32,3.71-1.98,0-3.95,.03-5.93-.01-.7-.02-.85,.23-.85,.88,0,4.9,.06,9.8-.05,14.7-.2,8.67-2.87,16.56-7.97,23.55-7.1,9.75-16.66,15.59-28.61,17.38-2.26,.34-4.58,.44-6.88,.44-12.53,.04-25.06,.02-37.6,.02Zm-89.86,22.29c.13,.09,.25,.18,.38,.26,.17-.28,.29-.61,.52-.83,9-9.03,18.01-18.05,27.03-27.06,.92-.92,1.87-1.81,2.88-2.62,5.38-4.33,11.57-6.3,18.45-6.3,26.09,.01,52.19,0,78.28,.01,3.28,0,6.49-.37,9.59-1.42,11.81-3.97,19.55-14.63,19.58-27.18,.06-23.68,.05-47.37,0-71.05-.02-8.82-3.48-16.16-10.18-21.87-5.42-4.63-11.81-6.72-18.94-6.72-37.68,.02-75.36,0-113.04,0-9.47,0-18.95,.01-28.42,0-7.17-.01-13.57,2.2-18.96,6.9-6.55,5.72-9.91,13.02-9.92,21.75-.03,23.63-.08,47.26,.02,70.89,.04,10.47,4.64,18.61,13.4,24.37,2.77,1.83,5.91,2.77,9.03,3.78,1.89,.61,3.8,1.34,5.51,2.34,9.22,5.41,14.16,13.51,14.73,24.19,.17,3.21,.05,6.44,.06,9.66,0,.29,0,.58,0,.87Z"/><path class="cls-1" d="M125.75,211.64c-.02-11.77,9.5-21.31,21.3-21.37,11.8-.05,21.39,9.51,21.4,21.34,.01,11.79-9.63,21.44-21.38,21.4-11.76-.04-21.31-9.61-21.32-21.37Z"/><path class="cls-1" d="M268.21,211.65c-.04,11.78-9.59,21.35-21.34,21.37-11.74,.02-21.42-9.66-21.4-21.4,.03-11.8,9.66-21.39,21.43-21.34,11.8,.06,21.34,9.62,21.3,21.37Z"/></g></svg>