<svg id="Layer_1" data-name="Layer 1" xmlns="http://www.w3.org/2000/svg" viewBox="0 0 1280 389.49"><defs><style>.cls-1{fill:#fff;}.cls-2{fill:#39b54a;}.cls-3{font-size:231.22px;font-family:Saira-Medium, Saira;}</style></defs><title>carryai-simple-light</title><g id="light_2" data-name="light 2"><path d="M259,282.92c-10.24,0-20.48,0-30.73,0a11.73,11.73,0,0,0-8.75,3.61Q209,297.1,198.45,307.6a10.82,10.82,0,0,1-18.69-6.87c-.06-2.63,0-5.27,0-7.91a11.21,11.21,0,0,0-8.34-11c-11.37-3.31-18.95-10.61-22.75-21.81a30.94,30.94,0,0,1-1.47-10c0-3.27,0-6.55,0-9.83,0-.54-.14-.69-.69-.7a55.13,55.13,0,0,1-7.28-.26,15.4,15.4,0,0,1-11.88-8.52A16.06,16.06,0,0,1,130,212.07,15.85,15.85,0,0,1,141.9,207c1.53,0,3,0,4.58,0,.59,0,.71-.2.71-.74,0-3.57-.06-7.13,0-10.7a32.55,32.55,0,0,1,26-31.33,35.51,35.51,0,0,1,7.13-.66H222.2c1,0,.9.11.9-.88,0-4.1,0-8.2,0-12.3a1.08,1.08,0,0,0-.57-1,21.45,21.45,0,0,1-9-11.19,20.51,20.51,0,0,1-.84-11.32,21.2,21.2,0,0,1,14.14-16.39,21.65,21.65,0,0,1,23.35,6.08,21.68,21.68,0,0,1-.56,29.41,21,21,0,0,1-4.33,3.47.91.91,0,0,0-.49.89q0,6.23,0,12.43c0,.84,0,.85.83.85q21.08,0,42.16,0a32.74,32.74,0,0,1,15.09,3.51,32.63,32.63,0,0,1,17.88,29.37c0,3.26,0,6.51,0,9.77,0,.65.2.79.81.78,1.81,0,3.62,0,5.44,0a16.14,16.14,0,0,1,15.21,13.56c1,6.75-1.4,12.17-6.9,16.13a15.73,15.73,0,0,1-9.39,2.83c-1.5,0-3,0-4.51,0-.53,0-.65.17-.65.67,0,3.73.05,7.46,0,11.19a31.1,31.1,0,0,1-6.07,17.93,31.87,31.87,0,0,1-21.78,13.24,36.7,36.7,0,0,1-5.24.34C278.09,282.94,268.55,282.92,259,282.92Zm-68.42,17,.29.21a3.12,3.12,0,0,1,.39-.64l20.58-20.6a27.74,27.74,0,0,1,2.2-2,21.72,21.72,0,0,1,14-4.79h59.61A22.83,22.83,0,0,0,295,271a21.63,21.63,0,0,0,14.91-20.7q.08-27,0-54.1a21.14,21.14,0,0,0-7.75-16.65,21.48,21.48,0,0,0-14.43-5.12q-43,0-86.06,0c-7.22,0-14.43,0-21.64,0a21.74,21.74,0,0,0-22,21.83c0,18-.05,36,0,54,0,8,3.53,14.17,10.2,18.56a27.55,27.55,0,0,0,6.88,2.88,21.8,21.8,0,0,1,15.41,20.21c.13,2.44,0,4.9,0,7.35Z"/><path class="cls-1" d="M190.58,299.89v-.66c0-2.45.09-4.91,0-7.35a21.8,21.8,0,0,0-15.41-20.21,27.55,27.55,0,0,1-6.88-2.88c-6.67-4.39-10.17-10.59-10.2-18.56-.07-18,0-36,0-54a21.74,21.74,0,0,1,22-21.83c7.21,0,14.42,0,21.64,0q43,0,86.06,0a21.48,21.48,0,0,1,14.43,5.12,21.14,21.14,0,0,1,7.75,16.65q0,27,0,54.1A21.63,21.63,0,0,1,295,271a22.83,22.83,0,0,1-7.3,1.08H228.08a21.72,21.72,0,0,0-14,4.79,27.74,27.74,0,0,0-2.2,2l-20.58,20.6a3.12,3.12,0,0,0-.39.64Zm-10.85-76.62A16.26,16.26,0,1,0,196,207,16.32,16.32,0,0,0,179.73,223.27Zm108.48,0A16.27,16.27,0,1,0,272,239.54,16.26,16.26,0,0,0,288.21,223.27Z"/><path class="cls-2" d="M179.73,223.27A16.26,16.26,0,1,1,196,239.54,16.27,16.27,0,0,1,179.73,223.27Z"/><path class="cls-2" d="M288.21,223.27A16.27,16.27,0,1,1,272,207,16.32,16.32,0,0,1,288.21,223.27Z"/><text class="cls-3" transform="translate(375.17 271.36)"><tspan class="cls-2">Carry</tspan><tspan x="578.03" y="0">AI</tspan></text></g></svg>